# xmcd
#
# Track frame offsets:
#	150
#	19770
#	38220
#	55035
#	83802
#	104622
#	123910
#	143047
#	167192
#	185710
#
# Disc length: 2657 seconds
#
# Revision: 1
# Processed by: cddbd v1.5PL3 Copyright (c) Steve Scherf et al.
# Submitted via: CDex 1.50Beta5
#
DISCID=840a5f0a
DTITLE=宇都宮隆 - WHITE ROOM
DYEAR=2000
DGENRE=Rock
TTITLE0=OUTLAW
TTITLE1=NAME
TTITLE2=Rag Doll
TTITLE3=one and one/line
TTITLE4=FLUSH-Forld Fairlane mix-
TTITLE5=Jumping Jack Show
TTITLE6=蒼〜sou〜
TTITLE7=NONFICTION
TTITLE8=Still…
TTITLE9=Be Truth-another take “wet wet wet”-
EXTD=
EXTT0=
EXTT1=
EXTT2=
EXTT3=
EXTT4=
EXTT5=
EXTT6=
EXTT7=
EXTT8=
EXTT9=
PLAYORDER=
